<?xml version="1.0" standalone="no"?><!DOCTYPE svg PUBLIC "-//W3C//DTD SVG 1.1//EN" "http://www.w3.org/Graphics/SVG/1.1/DTD/svg11.dtd"><svg t="1523436933554" class="icon" style="" viewBox="0 0 1024 1024" version="1.1" xmlns="http://www.w3.org/2000/svg" p-id="1044" xmlns:xlink="http://www.w3.org/1999/xlink" width="32" height="32"><defs><style type="text/css"></style></defs><path d="M928 960c-8 0-16-3.2-22.4-9.6L700.8 747.2c-12.8-12.8-12.8-32 0-44.8s32-12.8 44.8 0l203.2 203.2c12.8 12.8 12.8 32 0 44.8-4.8 6.4-12.8 9.6-20.8 9.6z" p-id="1045" fill="#f1f1f1"></path><path d="M464 864C243.2 864 64 684.8 64 464S243.2 64 464 64s400 179.2 400 400c0 59.2-12.8 115.2-36.8 168-8 16-27.2 22.4-43.2 16-16-8-22.4-27.2-16-43.2 22.4-44.8 32-91.2 32-140.8 0-185.6-150.4-336-336-336S128 278.4 128 464s150.4 336 336 336c89.6 0 174.4-35.2 236.8-99.2 12.8-12.8 32-12.8 44.8 0s12.8 32 0 44.8C672 822.4 571.2 864 464 864z" p-id="1046" fill="#f1f1f1"></path></svg>